<svg width="160" height="30" viewBox="0 0 160 30" fill="none" xmlns="http://www.w3.org/2000/svg">
<path d="M0.4 15C0.4 23.36 6.52 29.24 14.56 29.24C20.76 29.24 25.8 25.96 27.68 20.2H21.24C19.92 22.92 17.52 24.24 14.52 24.24C9.64 24.24 6.16 20.64 6.16 15C6.16 9.32 9.64 5.76 14.52 5.76C17.52 5.76 19.92 7.08 21.24 9.76H27.68C25.8 4.04 20.76 0.719999 14.56 0.719999C6.52 0.719999 0.4 6.64 0.4 15ZM38.0631 17.96C38.0631 13.68 40.0631 12.4 43.3831 12.4H44.8631V6.52C41.7831 6.52 39.4631 8 38.0631 10.28V6.84H32.4631V29H38.0631V17.96ZM58.155 11.08C61.035 11.08 63.355 12.92 63.435 15.84H52.915C53.355 12.8 55.475 11.08 58.155 11.08ZM68.675 22.04H62.635C61.915 23.52 60.595 24.72 58.195 24.72C55.395 24.72 53.155 22.88 52.875 19.6H69.075C69.195 18.88 69.235 18.16 69.235 17.44C69.235 10.84 64.715 6.48 58.315 6.48C51.755 6.48 47.195 10.92 47.195 17.92C47.195 24.88 51.875 29.36 58.315 29.36C63.795 29.36 67.475 26.12 68.675 22.04ZM71.8825 17.84C71.8825 24.76 76.3625 29.36 81.9625 29.36C85.4825 29.36 88.0025 27.68 89.3225 25.76V29H94.9625V6.84H89.3225V10C88.0025 8.16 85.5625 6.48 82.0025 6.48C76.3625 6.48 71.8825 10.92 71.8825 17.84ZM89.3225 17.92C89.3225 22.12 86.5225 24.44 83.4425 24.44C80.4425 24.44 77.6025 22.04 77.6025 17.84C77.6025 13.64 80.4425 11.4 83.4425 11.4C86.5225 11.4 89.3225 13.72 89.3225 17.92ZM101.312 22.12C101.312 27.2 104.152 29 108.392 29H111.912V24.28H109.312C107.552 24.28 106.952 23.64 106.952 22.16V11.44H111.912V6.84H106.952V1.36H101.312V6.84H98.6719V11.44H101.312V22.12Z" fill="#7087E0"/>
<path d="M143.18 14.96C143.18 6.6 136.86 0.68 128.9 0.68C121.02 0.68 114.58 6.6 114.58 14.96C114.58 23.36 121.02 29.28 128.9 29.28C136.82 29.28 143.18 23.36 143.18 14.96ZM120.34 14.96C120.34 9.28 123.82 5.72 128.9 5.72C133.94 5.72 137.42 9.28 137.42 14.96C137.42 20.64 133.94 24.28 128.9 24.28C123.82 24.28 120.34 20.64 120.34 14.96ZM152.946 17.96C152.946 13.68 154.946 12.4 158.266 12.4H159.746V6.52C156.666 6.52 154.346 8 152.946 10.28V6.84H147.346V29H152.946V17.96Z" fill="#1A2A6A"/>
</svg>
