<svg width="196" height="36" viewBox="0 0 196 36" fill="none" xmlns="http://www.w3.org/2000/svg">
<path d="M0.584 18.104C0.584 28.184 7.592 35.24 17.528 35.24C25.544 35.24 31.592 30.776 33.512 23.48H24.488C23.096 26.36 20.552 27.8 17.432 27.8C12.392 27.8 8.936 24.056 8.936 18.104C8.936 12.152 12.392 8.408 17.432 8.408C20.552 8.408 23.096 9.848 24.488 12.728H33.512C31.592 5.432 25.544 0.919998 17.528 0.919998C7.592 0.919998 0.584 8.024 0.584 18.104ZM46.7465 22.568C46.7465 17.96 49.0025 16.616 52.8905 16.616H55.1465V7.928C51.5465 7.928 48.6185 9.848 46.7465 12.68V8.216H38.5385V35H46.7465V22.568ZM70.8778 14.408C73.6138 14.408 75.9178 16.088 75.9178 19.016H65.6458C66.1258 16.04 68.1898 14.408 70.8778 14.408ZM83.6938 26.12H74.9578C74.2858 27.56 72.9898 28.712 70.6858 28.712C68.0458 28.712 65.8858 27.08 65.5978 23.576H84.1738C84.2698 22.76 84.3177 21.944 84.3177 21.176C84.3177 13.016 78.7978 7.832 70.9738 7.832C63.0058 7.832 57.4378 13.112 57.4378 21.608C57.4378 30.104 63.1018 35.384 70.9738 35.384C77.6458 35.384 82.3978 31.352 83.6938 26.12ZM87.0159 21.56C87.0159 30.008 92.2479 35.384 98.7759 35.384C102.76 35.384 105.592 33.56 107.08 31.208V35H115.288V8.216H107.08V12.008C105.64 9.656 102.808 7.832 98.8239 7.832C92.2479 7.832 87.0159 13.112 87.0159 21.56ZM107.08 21.608C107.08 25.88 104.344 28.232 101.224 28.232C98.1519 28.232 95.3679 25.832 95.3679 21.56C95.3679 17.288 98.1519 14.984 101.224 14.984C104.344 14.984 107.08 17.336 107.08 21.608ZM122.522 25.688C122.522 32.648 126.41 35 131.978 35H136.154V28.04H133.226C131.402 28.04 130.73 27.368 130.73 25.784V15.032H136.106V8.216H130.73V1.688H122.522V8.216H119.258V15.032H122.522V25.688Z" fill="#7087E0"/>
<path d="M173.894 18.056C173.894 7.928 166.262 0.823999 156.662 0.823999C147.11 0.823999 139.334 7.928 139.334 18.056C139.334 28.184 147.11 35.336 156.662 35.336C166.214 35.336 173.894 28.184 173.894 18.056ZM147.734 18.056C147.734 12.056 151.19 8.264 156.662 8.264C162.038 8.264 165.542 12.056 165.542 18.056C165.542 23.96 162.038 27.848 156.662 27.848C151.19 27.848 147.734 23.96 147.734 18.056ZM186.668 22.568C186.668 17.96 188.924 16.616 192.812 16.616H195.068V7.928C191.468 7.928 188.54 9.848 186.668 12.68V8.216H178.46V35H186.668V22.568Z" fill="#1A2A6A"/>
</svg>
